<mxfile host="app.diagrams.net" agent="Mozilla/5.0 (Windows NT 10.0; Win64; x64) AppleWebKit/537.36 (KHTML, like Gecko) Chrome/130.0.0.0 Safari/537.36" version="24.8.6">
  <diagram name="第 1 页" id="_T4felxnx_LwUqQVISCd">
    <mxGraphModel dx="-507" dy="624" grid="1" gridSize="10" guides="1" tooltips="1" connect="1" arrows="1" fold="1" page="1" pageScale="1" pageWidth="827" pageHeight="1169" math="0" shadow="0">
      <root>
        <mxCell id="0" />
        <mxCell id="1" parent="0" />
        <mxCell id="kPluAjkh61skHfV6UnEY-1" value="网络传输" style="swimlane;whiteSpace=wrap;html=1;" vertex="1" parent="1">
          <mxGeometry x="1764.5" y="889" width="611" height="101" as="geometry" />
        </mxCell>
        <mxCell id="kPluAjkh61skHfV6UnEY-2" value="&lt;font style=&quot;font-size: 22px;&quot;&gt;通信卫星&lt;/font&gt;" style="rounded=1;whiteSpace=wrap;html=1;" vertex="1" parent="kPluAjkh61skHfV6UnEY-1">
          <mxGeometry x="14" y="36" width="96" height="60" as="geometry" />
        </mxCell>
        <mxCell id="kPluAjkh61skHfV6UnEY-3" value="&lt;font style=&quot;font-size: 22px;&quot;&gt;图传基站&lt;/font&gt;" style="rounded=1;whiteSpace=wrap;html=1;" vertex="1" parent="kPluAjkh61skHfV6UnEY-1">
          <mxGeometry x="121" y="35" width="96" height="60" as="geometry" />
        </mxCell>
        <mxCell id="kPluAjkh61skHfV6UnEY-4" value="&lt;font style=&quot;font-size: 22px;&quot;&gt;4G/5G移动基站&lt;/font&gt;" style="rounded=1;whiteSpace=wrap;html=1;" vertex="1" parent="kPluAjkh61skHfV6UnEY-1">
          <mxGeometry x="231" y="35" width="122" height="60" as="geometry" />
        </mxCell>
        <mxCell id="kPluAjkh61skHfV6UnEY-5" value="&lt;font style=&quot;font-size: 22px;&quot;&gt;GSM基站&lt;/font&gt;" style="rounded=1;whiteSpace=wrap;html=1;" vertex="1" parent="kPluAjkh61skHfV6UnEY-1">
          <mxGeometry x="359" y="35" width="97" height="60" as="geometry" />
        </mxCell>
        <mxCell id="kPluAjkh61skHfV6UnEY-6" value="&lt;font style=&quot;font-size: 22px;&quot;&gt;现场WIFI覆盖&lt;/font&gt;" style="rounded=1;whiteSpace=wrap;html=1;" vertex="1" parent="kPluAjkh61skHfV6UnEY-1">
          <mxGeometry x="460" y="36" width="140" height="60" as="geometry" />
        </mxCell>
        <mxCell id="kPluAjkh61skHfV6UnEY-7" value="时空大数据平台" style="swimlane;whiteSpace=wrap;html=1;" vertex="1" parent="1">
          <mxGeometry x="1763" y="350" width="611" height="180" as="geometry" />
        </mxCell>
        <mxCell id="kPluAjkh61skHfV6UnEY-8" value="&lt;span style=&quot;font-size: 22px;&quot;&gt;服务链：&lt;/span&gt;" style="rounded=1;whiteSpace=wrap;html=1;imageAspect=1;noLabel=0;allowArrows=0;connectable=1;recursiveResize=1;expand=1;editable=1;movable=1;resizable=1;rotatable=1;deletable=1;locked=0;strokeWidth=0;strokeColor=none;" vertex="1" parent="kPluAjkh61skHfV6UnEY-7">
          <mxGeometry x="11" y="30" width="139" height="60" as="geometry" />
        </mxCell>
        <mxCell id="kPluAjkh61skHfV6UnEY-9" value="&lt;span style=&quot;font-size: 22px;&quot;&gt;服务注册：&lt;/span&gt;" style="rounded=1;whiteSpace=wrap;html=1;imageAspect=1;noLabel=0;allowArrows=0;connectable=1;recursiveResize=1;expand=1;editable=1;movable=1;resizable=1;rotatable=1;deletable=1;locked=0;strokeWidth=0;strokeColor=none;" vertex="1" parent="kPluAjkh61skHfV6UnEY-7">
          <mxGeometry x="11" y="100" width="139" height="60" as="geometry" />
        </mxCell>
        <mxCell id="kPluAjkh61skHfV6UnEY-10" value="&lt;span style=&quot;font-size: 22px;&quot;&gt;语义化&lt;/span&gt;" style="rounded=1;whiteSpace=wrap;html=1;" vertex="1" parent="kPluAjkh61skHfV6UnEY-7">
          <mxGeometry x="151" y="100" width="70" height="60" as="geometry" />
        </mxCell>
        <mxCell id="kPluAjkh61skHfV6UnEY-11" value="&lt;span style=&quot;font-size: 22px;&quot;&gt;人工智能分类&lt;/span&gt;" style="rounded=1;whiteSpace=wrap;html=1;" vertex="1" parent="kPluAjkh61skHfV6UnEY-7">
          <mxGeometry x="227" y="100" width="70" height="60" as="geometry" />
        </mxCell>
        <mxCell id="kPluAjkh61skHfV6UnEY-12" value="&lt;span style=&quot;font-size: 22px;&quot;&gt;服务验证&lt;/span&gt;" style="rounded=1;whiteSpace=wrap;html=1;" vertex="1" parent="kPluAjkh61skHfV6UnEY-7">
          <mxGeometry x="379" y="100" width="70" height="60" as="geometry" />
        </mxCell>
        <mxCell id="kPluAjkh61skHfV6UnEY-13" value="&lt;span style=&quot;font-size: 22px;&quot;&gt;服务发现&lt;/span&gt;" style="rounded=1;whiteSpace=wrap;html=1;" vertex="1" parent="kPluAjkh61skHfV6UnEY-7">
          <mxGeometry x="455" y="100" width="70" height="60" as="geometry" />
        </mxCell>
        <mxCell id="kPluAjkh61skHfV6UnEY-14" value="&lt;span style=&quot;font-size: 22px;&quot;&gt;服务评估&lt;/span&gt;" style="rounded=1;whiteSpace=wrap;html=1;" vertex="1" parent="kPluAjkh61skHfV6UnEY-7">
          <mxGeometry x="481" y="30" width="59" height="60" as="geometry" />
        </mxCell>
        <mxCell id="kPluAjkh61skHfV6UnEY-15" value="&lt;span style=&quot;font-size: 22px;&quot;&gt;有偿服务&lt;/span&gt;" style="rounded=1;whiteSpace=wrap;html=1;" vertex="1" parent="kPluAjkh61skHfV6UnEY-7">
          <mxGeometry x="531" y="100" width="70" height="60" as="geometry" />
        </mxCell>
        <mxCell id="kPluAjkh61skHfV6UnEY-16" value="&lt;span style=&quot;font-size: 22px;&quot;&gt;服务匹配&lt;/span&gt;" style="rounded=1;whiteSpace=wrap;html=1;" vertex="1" parent="kPluAjkh61skHfV6UnEY-7">
          <mxGeometry x="303" y="100" width="70" height="60" as="geometry" />
        </mxCell>
        <mxCell id="kPluAjkh61skHfV6UnEY-17" value="&lt;span style=&quot;font-size: 22px;&quot;&gt;生成式人工智能&lt;/span&gt;" style="rounded=1;whiteSpace=wrap;html=1;" vertex="1" parent="kPluAjkh61skHfV6UnEY-7">
          <mxGeometry x="151" y="30" width="99" height="60" as="geometry" />
        </mxCell>
        <mxCell id="kPluAjkh61skHfV6UnEY-18" value="&lt;span style=&quot;font-size: 22px;&quot;&gt;服务复用&lt;/span&gt;" style="rounded=1;whiteSpace=wrap;html=1;" vertex="1" parent="kPluAjkh61skHfV6UnEY-7">
          <mxGeometry x="540" y="30" width="61" height="60" as="geometry" />
        </mxCell>
        <mxCell id="kPluAjkh61skHfV6UnEY-19" value="&lt;span style=&quot;font-size: 22px;&quot;&gt;无监督分类&lt;/span&gt;" style="rounded=1;whiteSpace=wrap;html=1;" vertex="1" parent="kPluAjkh61skHfV6UnEY-7">
          <mxGeometry x="397" y="30" width="76" height="60" as="geometry" />
        </mxCell>
        <mxCell id="kPluAjkh61skHfV6UnEY-20" value="&lt;span style=&quot;font-size: 22px;&quot;&gt;可视化&lt;/span&gt;" style="rounded=1;whiteSpace=wrap;html=1;" vertex="1" parent="kPluAjkh61skHfV6UnEY-7">
          <mxGeometry x="341" y="30" width="49" height="60" as="geometry" />
        </mxCell>
        <mxCell id="kPluAjkh61skHfV6UnEY-71" value="&lt;span style=&quot;font-size: 22px;&quot;&gt;自然语言交互&lt;/span&gt;" style="rounded=1;whiteSpace=wrap;html=1;" vertex="1" parent="kPluAjkh61skHfV6UnEY-7">
          <mxGeometry x="257" y="30" width="74" height="60" as="geometry" />
        </mxCell>
        <mxCell id="kPluAjkh61skHfV6UnEY-21" value="应用层" style="swimlane;whiteSpace=wrap;html=1;" vertex="1" parent="1">
          <mxGeometry x="1764" y="180" width="611" height="110" as="geometry" />
        </mxCell>
        <mxCell id="kPluAjkh61skHfV6UnEY-22" value="&lt;span style=&quot;font-size: 22px;&quot;&gt;火灾预警&lt;/span&gt;" style="rounded=1;whiteSpace=wrap;html=1;" vertex="1" parent="kPluAjkh61skHfV6UnEY-21">
          <mxGeometry x="10" y="40" width="60" height="60" as="geometry" />
        </mxCell>
        <mxCell id="kPluAjkh61skHfV6UnEY-23" value="&lt;span style=&quot;font-size: 22px;&quot;&gt;信息共享&lt;/span&gt;" style="rounded=1;whiteSpace=wrap;html=1;" vertex="1" parent="kPluAjkh61skHfV6UnEY-21">
          <mxGeometry x="143" y="40" width="60" height="60" as="geometry" />
        </mxCell>
        <mxCell id="kPluAjkh61skHfV6UnEY-24" value="&lt;span style=&quot;font-size: 22px;&quot;&gt;指挥调度&lt;/span&gt;" style="rounded=1;whiteSpace=wrap;html=1;" vertex="1" parent="kPluAjkh61skHfV6UnEY-21">
          <mxGeometry x="209" y="40" width="60" height="60" as="geometry" />
        </mxCell>
        <mxCell id="kPluAjkh61skHfV6UnEY-25" value="&lt;span style=&quot;font-size: 22px;&quot;&gt;装备管理&lt;/span&gt;" style="rounded=1;whiteSpace=wrap;html=1;" vertex="1" parent="kPluAjkh61skHfV6UnEY-21">
          <mxGeometry x="275" y="40" width="60" height="60" as="geometry" />
        </mxCell>
        <mxCell id="kPluAjkh61skHfV6UnEY-26" value="&lt;span style=&quot;font-size: 22px;&quot;&gt;培训演练&lt;/span&gt;" style="rounded=1;whiteSpace=wrap;html=1;" vertex="1" parent="kPluAjkh61skHfV6UnEY-21">
          <mxGeometry x="474" y="40" width="60" height="60" as="geometry" />
        </mxCell>
        <mxCell id="kPluAjkh61skHfV6UnEY-27" value="&lt;span style=&quot;font-size: 22px;&quot;&gt;公众教育&lt;/span&gt;" style="rounded=1;whiteSpace=wrap;html=1;" vertex="1" parent="kPluAjkh61skHfV6UnEY-21">
          <mxGeometry x="540" y="40" width="60" height="60" as="geometry" />
        </mxCell>
        <mxCell id="kPluAjkh61skHfV6UnEY-28" value="&lt;span style=&quot;font-size: 22px;&quot;&gt;分析决策&lt;/span&gt;" style="rounded=1;whiteSpace=wrap;html=1;" vertex="1" parent="kPluAjkh61skHfV6UnEY-21">
          <mxGeometry x="341" y="40" width="60" height="60" as="geometry" />
        </mxCell>
        <mxCell id="kPluAjkh61skHfV6UnEY-29" value="&lt;span style=&quot;font-size: 22px;&quot;&gt;救援评估&lt;/span&gt;" style="rounded=1;whiteSpace=wrap;html=1;" vertex="1" parent="kPluAjkh61skHfV6UnEY-21">
          <mxGeometry x="408" y="40" width="60" height="60" as="geometry" />
        </mxCell>
        <mxCell id="kPluAjkh61skHfV6UnEY-30" value="&lt;span style=&quot;font-size: 22px;&quot;&gt;态势感知&lt;/span&gt;" style="rounded=1;whiteSpace=wrap;html=1;" vertex="1" parent="kPluAjkh61skHfV6UnEY-21">
          <mxGeometry x="76" y="40" width="60" height="60" as="geometry" />
        </mxCell>
        <mxCell id="kPluAjkh61skHfV6UnEY-31" value="用户层" style="swimlane;whiteSpace=wrap;html=1;" vertex="1" parent="1">
          <mxGeometry x="1763" y="20" width="611" height="105" as="geometry" />
        </mxCell>
        <mxCell id="kPluAjkh61skHfV6UnEY-32" value="&lt;span style=&quot;font-size: 22px;&quot;&gt;森林消防车载系统&lt;/span&gt;" style="rounded=1;whiteSpace=wrap;html=1;flipH=1;" vertex="1" parent="kPluAjkh61skHfV6UnEY-31">
          <mxGeometry x="11" y="35" width="99" height="60" as="geometry" />
        </mxCell>
        <mxCell id="kPluAjkh61skHfV6UnEY-33" value="&lt;span style=&quot;font-size: 22px;&quot;&gt;森林消防单兵系统&lt;/span&gt;" style="rounded=1;whiteSpace=wrap;html=1;flipH=1;" vertex="1" parent="kPluAjkh61skHfV6UnEY-31">
          <mxGeometry x="129" y="35" width="100" height="60" as="geometry" />
        </mxCell>
        <mxCell id="kPluAjkh61skHfV6UnEY-34" value="&lt;span style=&quot;font-size: 22px;&quot;&gt;森林消防无人系统&lt;/span&gt;" style="rounded=1;whiteSpace=wrap;html=1;flipH=1;" vertex="1" parent="kPluAjkh61skHfV6UnEY-31">
          <mxGeometry x="247" y="35" width="103" height="60" as="geometry" />
        </mxCell>
        <mxCell id="kPluAjkh61skHfV6UnEY-35" value="&lt;span style=&quot;font-size: 22px;&quot;&gt;三维全息可视化系统&lt;/span&gt;" style="rounded=1;whiteSpace=wrap;html=1;flipH=1;" vertex="1" parent="kPluAjkh61skHfV6UnEY-31">
          <mxGeometry x="477" y="35" width="118" height="60" as="geometry" />
        </mxCell>
        <mxCell id="kPluAjkh61skHfV6UnEY-72" value="&lt;span style=&quot;font-size: 22px;&quot;&gt;人工智能交互系统&lt;/span&gt;" style="rounded=1;whiteSpace=wrap;html=1;flipH=1;" vertex="1" parent="kPluAjkh61skHfV6UnEY-31">
          <mxGeometry x="366" y="35" width="103" height="60" as="geometry" />
        </mxCell>
        <mxCell id="kPluAjkh61skHfV6UnEY-36" value="提供动态数据" style="text;html=1;strokeColor=none;fillColor=none;align=center;verticalAlign=middle;whiteSpace=wrap;rounded=0;" vertex="1" parent="1">
          <mxGeometry x="2084" y="540" width="90" height="30" as="geometry" />
        </mxCell>
        <mxCell id="kPluAjkh61skHfV6UnEY-37" value="" style="shape=flexArrow;endArrow=classic;html=1;rounded=0;entryX=0.5;entryY=1;entryDx=0;entryDy=0;" edge="1" parent="1" source="kPluAjkh61skHfV6UnEY-7" target="kPluAjkh61skHfV6UnEY-21">
          <mxGeometry width="50" height="50" relative="1" as="geometry">
            <mxPoint x="1977" y="327.5" as="sourcePoint" />
            <mxPoint x="1977" y="282.5" as="targetPoint" />
          </mxGeometry>
        </mxCell>
        <mxCell id="kPluAjkh61skHfV6UnEY-38" value="提供以数字孪生为基础的统一数据索引" style="text;html=1;strokeColor=none;fillColor=none;align=center;verticalAlign=middle;whiteSpace=wrap;rounded=0;" vertex="1" parent="1">
          <mxGeometry x="2084" y="296" width="120" height="30" as="geometry" />
        </mxCell>
        <mxCell id="kPluAjkh61skHfV6UnEY-39" value="" style="shape=flexArrow;endArrow=classic;html=1;rounded=0;exitX=0.5;exitY=0;exitDx=0;exitDy=0;entryX=0.5;entryY=1;entryDx=0;entryDy=0;" edge="1" parent="1" source="kPluAjkh61skHfV6UnEY-21" target="kPluAjkh61skHfV6UnEY-31">
          <mxGeometry width="50" height="50" relative="1" as="geometry">
            <mxPoint x="1977" y="162.5" as="sourcePoint" />
            <mxPoint x="2007" y="142.5" as="targetPoint" />
          </mxGeometry>
        </mxCell>
        <mxCell id="kPluAjkh61skHfV6UnEY-40" value="提供业务数据" style="text;html=1;strokeColor=none;fillColor=none;align=center;verticalAlign=middle;whiteSpace=wrap;rounded=0;" vertex="1" parent="1">
          <mxGeometry x="2097" y="142" width="80" height="30" as="geometry" />
        </mxCell>
        <mxCell id="kPluAjkh61skHfV6UnEY-41" value="&lt;span style=&quot;font-size: 22px;&quot;&gt;制度安全保障体系&lt;/span&gt;" style="rounded=1;whiteSpace=wrap;html=1;" vertex="1" parent="1">
          <mxGeometry x="2394" y="20" width="27" height="1120" as="geometry" />
        </mxCell>
        <mxCell id="kPluAjkh61skHfV6UnEY-42" value="&lt;font style=&quot;font-size: 22px;&quot;&gt;政策标准保障体系&lt;/font&gt;" style="rounded=1;whiteSpace=wrap;html=1;" vertex="1" parent="1">
          <mxGeometry x="1714" y="20" width="31" height="1120" as="geometry" />
        </mxCell>
        <mxCell id="kPluAjkh61skHfV6UnEY-43" value="数据感知感知" style="swimlane;whiteSpace=wrap;html=1;" vertex="1" parent="1">
          <mxGeometry x="1763.5" y="1039" width="611" height="101" as="geometry" />
        </mxCell>
        <mxCell id="kPluAjkh61skHfV6UnEY-44" value="&lt;span style=&quot;font-size: 22px;&quot;&gt;天：卫星&lt;/span&gt;" style="rounded=1;whiteSpace=wrap;html=1;" vertex="1" parent="kPluAjkh61skHfV6UnEY-43">
          <mxGeometry x="14" y="36" width="146" height="60" as="geometry" />
        </mxCell>
        <mxCell id="kPluAjkh61skHfV6UnEY-45" value="&lt;font style=&quot;font-size: 22px;&quot;&gt;空：无人机&lt;/font&gt;" style="rounded=1;whiteSpace=wrap;html=1;" vertex="1" parent="kPluAjkh61skHfV6UnEY-43">
          <mxGeometry x="170" y="35" width="150" height="60" as="geometry" />
        </mxCell>
        <mxCell id="kPluAjkh61skHfV6UnEY-46" value="&lt;font style=&quot;font-size: 22px;&quot;&gt;地：有人装备、无人装备&lt;/font&gt;" style="rounded=1;whiteSpace=wrap;html=1;" vertex="1" parent="kPluAjkh61skHfV6UnEY-43">
          <mxGeometry x="331" y="35" width="266" height="60" as="geometry" />
        </mxCell>
        <mxCell id="kPluAjkh61skHfV6UnEY-47" value="时空大数据资源池" style="swimlane;whiteSpace=wrap;html=1;" vertex="1" parent="1">
          <mxGeometry x="1764" y="580" width="610" height="260" as="geometry" />
        </mxCell>
        <mxCell id="kPluAjkh61skHfV6UnEY-48" value="&lt;span style=&quot;font-size: 22px;&quot;&gt;基础时空数据&lt;/span&gt;" style="rounded=1;whiteSpace=wrap;html=1;" vertex="1" parent="kPluAjkh61skHfV6UnEY-47">
          <mxGeometry x="150" y="40" width="80" height="60" as="geometry" />
        </mxCell>
        <mxCell id="kPluAjkh61skHfV6UnEY-49" value="&lt;span style=&quot;font-size: 22px;&quot;&gt;公共专题数据&lt;/span&gt;" style="rounded=1;whiteSpace=wrap;html=1;" vertex="1" parent="kPluAjkh61skHfV6UnEY-47">
          <mxGeometry x="240" y="40" width="80" height="60" as="geometry" />
        </mxCell>
        <mxCell id="kPluAjkh61skHfV6UnEY-50" value="&lt;span style=&quot;font-size: 24px;&quot;&gt;物联网数据&lt;/span&gt;" style="rounded=1;whiteSpace=wrap;html=1;" vertex="1" parent="kPluAjkh61skHfV6UnEY-47">
          <mxGeometry x="330" y="40" width="83.5" height="60" as="geometry" />
        </mxCell>
        <mxCell id="kPluAjkh61skHfV6UnEY-51" value="&lt;span style=&quot;font-size: 24px;&quot;&gt;实时感知数据&lt;/span&gt;" style="rounded=1;whiteSpace=wrap;html=1;" vertex="1" parent="kPluAjkh61skHfV6UnEY-47">
          <mxGeometry x="420" y="40" width="80" height="60" as="geometry" />
        </mxCell>
        <mxCell id="kPluAjkh61skHfV6UnEY-52" value="&lt;span style=&quot;font-size: 24px;&quot;&gt;其它特色数据&lt;/span&gt;" style="rounded=1;whiteSpace=wrap;html=1;" vertex="1" parent="kPluAjkh61skHfV6UnEY-47">
          <mxGeometry x="505" y="40" width="90" height="60" as="geometry" />
        </mxCell>
        <mxCell id="kPluAjkh61skHfV6UnEY-53" value="&lt;span style=&quot;font-size: 22px;&quot;&gt;场景推演算法&lt;/span&gt;" style="rounded=1;whiteSpace=wrap;html=1;" vertex="1" parent="kPluAjkh61skHfV6UnEY-47">
          <mxGeometry x="150" y="110" width="80" height="60" as="geometry" />
        </mxCell>
        <mxCell id="kPluAjkh61skHfV6UnEY-54" value="&lt;span style=&quot;font-size: 22px;&quot;&gt;目标识别算法&lt;/span&gt;" style="rounded=1;whiteSpace=wrap;html=1;" vertex="1" parent="kPluAjkh61skHfV6UnEY-47">
          <mxGeometry x="240" y="110" width="80" height="60" as="geometry" />
        </mxCell>
        <mxCell id="kPluAjkh61skHfV6UnEY-55" value="&lt;span style=&quot;font-size: 22px;&quot;&gt;语言大模型&lt;/span&gt;" style="rounded=1;whiteSpace=wrap;html=1;" vertex="1" parent="kPluAjkh61skHfV6UnEY-47">
          <mxGeometry x="330" y="110" width="80" height="60" as="geometry" />
        </mxCell>
        <mxCell id="kPluAjkh61skHfV6UnEY-56" value="&lt;span style=&quot;font-size: 22px;&quot;&gt;消防大模型&lt;/span&gt;" style="rounded=1;whiteSpace=wrap;html=1;" vertex="1" parent="kPluAjkh61skHfV6UnEY-47">
          <mxGeometry x="420" y="110" width="80" height="60" as="geometry" />
        </mxCell>
        <mxCell id="kPluAjkh61skHfV6UnEY-57" value="&lt;span style=&quot;font-size: 22px;&quot;&gt;其它算法&lt;/span&gt;" style="rounded=1;whiteSpace=wrap;html=1;" vertex="1" parent="kPluAjkh61skHfV6UnEY-47">
          <mxGeometry x="505" y="110" width="85" height="60" as="geometry" />
        </mxCell>
        <mxCell id="kPluAjkh61skHfV6UnEY-58" value="&lt;span style=&quot;font-size: 22px;&quot;&gt;CPU 资源&lt;/span&gt;" style="rounded=1;whiteSpace=wrap;html=1;" vertex="1" parent="kPluAjkh61skHfV6UnEY-47">
          <mxGeometry x="150" y="180" width="80" height="60" as="geometry" />
        </mxCell>
        <mxCell id="kPluAjkh61skHfV6UnEY-59" value="&lt;span style=&quot;font-size: 22px;&quot;&gt;数据资源：&lt;/span&gt;" style="rounded=1;whiteSpace=wrap;html=1;imageAspect=1;noLabel=0;allowArrows=0;connectable=1;recursiveResize=1;expand=1;editable=1;movable=1;resizable=1;rotatable=1;deletable=1;locked=0;strokeWidth=0;strokeColor=none;" vertex="1" parent="kPluAjkh61skHfV6UnEY-47">
          <mxGeometry x="10" y="40" width="130" height="60" as="geometry" />
        </mxCell>
        <mxCell id="kPluAjkh61skHfV6UnEY-60" value="&lt;span style=&quot;font-size: 22px;&quot;&gt;算法资源：&lt;/span&gt;" style="rounded=1;whiteSpace=wrap;html=1;imageAspect=1;noLabel=0;allowArrows=0;connectable=1;recursiveResize=1;expand=1;editable=1;movable=1;resizable=1;rotatable=1;deletable=1;locked=0;strokeWidth=0;strokeColor=none;" vertex="1" parent="kPluAjkh61skHfV6UnEY-47">
          <mxGeometry x="10" y="110" width="130" height="60" as="geometry" />
        </mxCell>
        <mxCell id="kPluAjkh61skHfV6UnEY-61" value="&lt;span style=&quot;font-size: 22px;&quot;&gt;计算资源：&lt;/span&gt;" style="rounded=1;whiteSpace=wrap;html=1;imageAspect=1;noLabel=0;allowArrows=0;connectable=1;recursiveResize=1;expand=1;editable=1;movable=1;resizable=1;rotatable=1;deletable=1;locked=0;strokeWidth=0;strokeColor=none;" vertex="1" parent="kPluAjkh61skHfV6UnEY-47">
          <mxGeometry x="10" y="180" width="130" height="60" as="geometry" />
        </mxCell>
        <mxCell id="kPluAjkh61skHfV6UnEY-62" value="&lt;span style=&quot;font-size: 22px;&quot;&gt;GPU 资源&lt;/span&gt;" style="rounded=1;whiteSpace=wrap;html=1;" vertex="1" parent="kPluAjkh61skHfV6UnEY-47">
          <mxGeometry x="240" y="180" width="80" height="60" as="geometry" />
        </mxCell>
        <mxCell id="kPluAjkh61skHfV6UnEY-63" value="&lt;span style=&quot;font-size: 22px;&quot;&gt;内存资源&lt;/span&gt;" style="rounded=1;whiteSpace=wrap;html=1;" vertex="1" parent="kPluAjkh61skHfV6UnEY-47">
          <mxGeometry x="330" y="180" width="80" height="60" as="geometry" />
        </mxCell>
        <mxCell id="kPluAjkh61skHfV6UnEY-64" value="&lt;span style=&quot;font-size: 22px;&quot;&gt;存储资源&lt;/span&gt;" style="rounded=1;whiteSpace=wrap;html=1;" vertex="1" parent="kPluAjkh61skHfV6UnEY-47">
          <mxGeometry x="420" y="180" width="80" height="60" as="geometry" />
        </mxCell>
        <mxCell id="kPluAjkh61skHfV6UnEY-65" value="&lt;span style=&quot;font-size: 22px;&quot;&gt;虚拟化资源&lt;/span&gt;" style="rounded=1;whiteSpace=wrap;html=1;" vertex="1" parent="kPluAjkh61skHfV6UnEY-47">
          <mxGeometry x="507.5" y="180" width="80" height="60" as="geometry" />
        </mxCell>
        <mxCell id="kPluAjkh61skHfV6UnEY-66" value="" style="shape=flexArrow;endArrow=classic;html=1;rounded=0;entryX=0.5;entryY=1;entryDx=0;entryDy=0;exitX=0.5;exitY=0;exitDx=0;exitDy=0;" edge="1" parent="1" source="kPluAjkh61skHfV6UnEY-47" target="kPluAjkh61skHfV6UnEY-7">
          <mxGeometry width="50" height="50" relative="1" as="geometry">
            <mxPoint x="2434" y="644" as="sourcePoint" />
            <mxPoint x="2434" y="560" as="targetPoint" />
          </mxGeometry>
        </mxCell>
        <mxCell id="kPluAjkh61skHfV6UnEY-67" value="" style="shape=flexArrow;endArrow=classic;html=1;rounded=0;entryX=0.5;entryY=1;entryDx=0;entryDy=0;exitX=0.5;exitY=0;exitDx=0;exitDy=0;" edge="1" parent="1" source="kPluAjkh61skHfV6UnEY-1" target="kPluAjkh61skHfV6UnEY-47">
          <mxGeometry width="50" height="50" relative="1" as="geometry">
            <mxPoint x="2070" y="900" as="sourcePoint" />
            <mxPoint x="2069" y="850" as="targetPoint" />
          </mxGeometry>
        </mxCell>
        <mxCell id="kPluAjkh61skHfV6UnEY-68" value="网格网络" style="text;html=1;strokeColor=none;fillColor=none;align=center;verticalAlign=middle;whiteSpace=wrap;rounded=0;" vertex="1" parent="1">
          <mxGeometry x="2074" y="853.5" width="90" height="30" as="geometry" />
        </mxCell>
        <mxCell id="kPluAjkh61skHfV6UnEY-69" value="" style="shape=flexArrow;endArrow=classic;html=1;rounded=0;entryX=0.5;entryY=1;entryDx=0;entryDy=0;exitX=0.5;exitY=0;exitDx=0;exitDy=0;" edge="1" parent="1" source="kPluAjkh61skHfV6UnEY-43" target="kPluAjkh61skHfV6UnEY-1">
          <mxGeometry width="50" height="50" relative="1" as="geometry">
            <mxPoint x="2129.5" y="1065" as="sourcePoint" />
            <mxPoint x="2128.5" y="1005" as="targetPoint" />
          </mxGeometry>
        </mxCell>
        <mxCell id="kPluAjkh61skHfV6UnEY-70" value="通信保障" style="text;html=1;strokeColor=none;fillColor=none;align=center;verticalAlign=middle;whiteSpace=wrap;rounded=0;" vertex="1" parent="1">
          <mxGeometry x="2064.5" y="1009" width="90" height="30" as="geometry" />
        </mxCell>
      </root>
    </mxGraphModel>
  </diagram>
</mxfile>
